<svg width="57" height="57" viewBox="0 0 57 57" fill="none" xmlns="http://www.w3.org/2000/svg">
<circle cx="28.5" cy="28.5" r="28.5" fill="#65FA8F" fill-opacity="0.15"/>
<path d="M17 33.0001V35.0001H21.586L15 41.5861L16.414 43.0001L23 36.4141V41.0001H25V33.0001H17Z" fill="#1CC500"/>
<path d="M28 41.0001V39.0001C30.2131 38.9974 32.3479 38.1805 33.9975 36.7052C35.6471 35.2299 36.6963 33.1992 36.945 31.0001H29C28.4697 30.9995 27.9613 30.7886 27.5864 30.4137C27.2114 30.0387 27.0005 29.5303 27 29.0001V21.0551C24.8009 21.3038 22.7702 22.3529 21.2949 24.0026C19.8195 25.6522 19.0027 27.7869 19 30.0001H17C17.0032 27.0837 18.1631 24.2876 20.2253 22.2254C22.2875 20.1632 25.0836 19.0032 28 19.0001C28.2652 19.0001 28.5196 19.1054 28.7071 19.293C28.8946 19.4805 29 19.7348 29 20.0001V29.0001H38C38.2652 29.0001 38.5196 29.1054 38.7071 29.293C38.8946 29.4805 39 29.7348 39 30.0001C38.9968 32.9165 37.8369 35.7125 35.7747 37.7747C33.7125 39.8369 30.9164 40.9969 28 41.0001Z" fill="#1CC500"/>
<path d="M42.006 27.0001H32.995C32.7326 26.9999 32.4729 26.9481 32.2306 26.8475C31.9882 26.7468 31.7681 26.5994 31.5828 26.4137C31.3976 26.2279 31.2507 26.0075 31.1507 25.7649C31.0507 25.5223 30.9995 25.2624 31 25.0001V16.0001C31.001 15.8674 31.0283 15.7362 31.0802 15.614C31.132 15.4918 31.2075 15.3811 31.3023 15.2882C31.3971 15.1953 31.5093 15.122 31.6324 15.0726C31.7556 15.0231 31.8873 14.9985 32.02 15.0001C34.9295 15.0085 37.7174 16.168 39.7747 18.2254C41.832 20.2827 42.9916 23.0706 43 25.9801C43.0021 26.1124 42.978 26.2439 42.9292 26.3669C42.8803 26.4899 42.8076 26.602 42.7152 26.6968C42.6228 26.7916 42.5126 26.8672 42.3909 26.9193C42.2692 26.9713 42.1384 26.9988 42.006 27.0001ZM33 25.0001H40.945C40.7152 22.9721 39.8042 21.0822 38.3611 19.639C36.9179 18.1959 35.0279 17.2849 33 17.0551V25.0001Z" fill="#1CC500"/>
</svg>
