<svg width="57" height="57" viewBox="0 0 57 57" fill="none" xmlns="http://www.w3.org/2000/svg">
<circle cx="28.5" cy="28.5" r="28.5" fill="#FF4026" fill-opacity="0.15"/>
<path d="M37.5411 17C38.1935 17 38.8191 17.2592 39.2804 17.7205C39.7417 18.1818 40.0009 18.8074 40.0009 19.4598V21.7474C40.0009 22.5026 39.7924 23.243 39.3982 23.8872C39.0041 24.5313 38.4398 25.0541 37.7674 25.3978L30.8963 28.9071C32.1048 29.4547 33.0893 30.3997 33.6858 31.5848C34.2823 32.7699 34.4549 34.1235 34.1748 35.4204C33.8947 36.7172 33.1788 37.879 32.1464 38.7123C31.1139 39.5455 29.8272 40 28.5005 40C27.1737 40 25.887 39.5455 24.8545 38.7123C23.8221 37.879 23.1062 36.7172 22.8261 35.4204C22.546 34.1235 22.7186 32.7699 23.3151 31.5848C23.9116 30.3997 24.8961 29.4547 26.1046 28.9071L19.2352 25.3962C18.6086 25.0762 18.075 24.6004 17.6855 24.0145C17.2961 23.4286 17.064 22.7524 17.0115 22.0508L17 21.7491V19.4598C17 18.8074 17.2592 18.1818 17.7205 17.7205C18.1818 17.2592 18.8074 17 19.4598 17H37.5411ZM28.5005 30.0305C27.9468 30.0195 27.3966 30.119 26.8819 30.3233C26.3672 30.5276 25.8985 30.8324 25.503 31.2201C25.1076 31.6077 24.7935 32.0703 24.5791 32.5809C24.3646 33.0914 24.2542 33.6395 24.2542 34.1933C24.2542 34.747 24.3646 35.2952 24.5791 35.8057C24.7935 36.3162 25.1076 36.7789 25.503 37.1665C25.8985 37.5541 26.3672 37.859 26.8819 38.0633C27.3966 38.2675 27.9468 38.3671 28.5005 38.3561C29.5902 38.3345 30.628 37.8864 31.391 37.1081C32.1541 36.3297 32.5815 35.2832 32.5815 34.1933C32.5815 33.1033 32.1541 32.0568 31.391 31.2785C30.628 30.5002 29.5902 30.0521 28.5005 30.0305ZM32.769 18.6382H24.2253V26.1046L28.1282 28.0987C28.2437 28.1577 28.3716 28.1885 28.5013 28.1885C28.631 28.1885 28.7588 28.1577 28.8743 28.0987L32.769 26.1079V18.6399V18.6382Z" fill="#FF5E5E"/>
</svg>
