<svg width="21" height="18" viewBox="0 0 21 18" fill="none" xmlns="http://www.w3.org/2000/svg">
<path opacity="0.5" d="M19.8884 3.52585C19.7951 3.43166 19.684 3.35697 19.5615 3.30612C19.4391 3.25527 19.3077 3.22928 19.1751 3.22965H18.4629V1.5512C18.4626 1.2842 18.3564 1.02822 18.1676 0.839423C17.9788 0.650626 17.7229 0.544428 17.4559 0.544128H2.9636C2.1776 0.54414 1.42381 0.856378 0.868029 1.41216C0.31225 1.96794 1.11285e-05 2.72173 0 3.50772V15.0364C1.11285e-05 15.8224 0.31225 16.5762 0.868029 17.132C1.42381 17.6877 2.1776 18 2.9636 18H19.1355C19.4018 17.9995 19.6572 17.8937 19.8458 17.7056C20.0345 17.5176 20.1412 17.2625 20.1425 16.9962L20.1821 4.24016C20.183 4.10757 20.1574 3.97614 20.107 3.85351C20.0566 3.73089 19.9823 3.61951 19.8884 3.52585ZM18.8009 16.6572H2.9636C2.53372 16.6572 2.12146 16.4865 1.81749 16.1825C1.51353 15.8785 1.34276 15.4663 1.34276 15.0364V3.50772C1.34276 3.07785 1.51353 2.66559 1.81749 2.36162C2.12146 2.05765 2.53372 1.88689 2.9636 1.88689H17.1202V3.22965H3.02121V4.57241H18.8384L18.8009 16.6572Z" fill="black"/>
</svg>
